<svg height="264" viewBox="0 0 375 264" width="375" xmlns="http://www.w3.org/2000/svg" xmlns:xlink="http://www.w3.org/1999/xlink"><clipPath id="a"><path d="m0 219.98v-219.98h375v219.98c-54.432 27.905-118.679 44.02-187.5 44.02s-133.068-16.115-187.5-44.02z"/></clipPath><linearGradient id="b" gradientUnits="objectBoundingBox" x1=".748" x2="0" y1=".265" y2=".772"><stop offset="0" stop-color="#ff8960"/><stop offset="1" stop-color="#ff62a5"/></linearGradient><clipPath id="c"><path d="m0 276.028h66.745v-276.028h-66.745z" transform="translate(.023 .266)"/></clipPath><clipPath id="d"><path d="m0 276.028h154.057v-276.028h-154.057z" transform="translate(.405 .266)"/></clipPath><clipPath id="e"><path d="m0 276.028h185.068v-276.028h-185.068z" transform="translate(.505 .266)"/></clipPath><clipPath id="f"><path d="m0 276.028h180.948v-276.028h-180.948z" transform="translate(.626 .266)"/></clipPath><clipPath id="g"><path d="m0 219.263h175.437v-219.263h-175.437z" transform="translate(.137 .03)"/></clipPath><clipPath id="h"><path d="m0 156.626h170.167v-156.626h-170.167z" transform="translate(.406 .668)"/></clipPath><clipPath id="i"><path d="m0 78.635h151.973v-78.635h-151.973z" transform="translate(.603 .659)"/></clipPath><clipPath id="j"><path d="m0 276.028h158.7v-276.028h-158.7z" transform="translate(.743 .266)"/></clipPath><clipPath id="k"><path d="m179.863 276.028h-179.863v-276.028h179.863z" transform="translate(.48 .266)"/></clipPath><clipPath id="l"><path d="m175.5 276.028h-175.5v-276.028h175.5z" transform="translate(.479 .266)"/></clipPath><clipPath id="m"><path d="m170.229 219.263h-170.229v-219.263h170.229z" transform="translate(.48 .03)"/></clipPath><clipPath id="n"><path d="m164.96 156.626h-164.96v-156.626h164.96z" transform="translate(.481 .668)"/></clipPath><clipPath id="o"><path d="m148.516 78.635h-148.516v-78.635h148.516z" transform="translate(.482 .659)"/></clipPath><g clip-path="url(#a)"><path d="m0 0h375v264h-375z" fill="url(#b)"/><g opacity=".1" transform="translate(-1)"><g transform="translate(150)"><path d="m0 276.028h66.745v-276.028h-66.745z" fill="none" transform="translate(.023 .266)"/><g clip-path="url(#c)"><path d="m66.745 0-29.3 581.705h-1.945l-35.5-581.705z" fill="#fff" transform="translate(.023 -301.337)"/></g></g><g transform="translate(188)"><path d="m0 276.028h154.057v-276.028h-154.057z" fill="none" transform="translate(.405 .266)"/><g clip-path="url(#d)"><path d="m154.057 0-152.127 581.705h-1.93l87.775-581.705z" fill="#fff" transform="translate(.405 -301.337)"/></g></g><g transform="translate(192)"><path d="m0 276.028h185.068v-276.028h-185.068z" fill="none" transform="translate(.505 .266)"/><g clip-path="url(#e)"><path d="m214.548 136.574-212.579 436.069h-1.969l214.548-572.643z" fill="#fff" transform="translate(.505 -292.275)"/></g></g><g transform="translate(196)"><path d="m0 276.028h180.948v-276.028h-180.948z" fill="none" transform="translate(.626 .266)"/><g clip-path="url(#f)"><path d="m2.79 351.526h-2.79l210.4-351.526v77.774z" fill="#fff" transform="translate(.626 -71.158)"/></g></g><g transform="translate(202 57)"><path d="m0 219.263h175.437v-219.263h-175.437z" fill="none" transform="translate(.137 .03)"/><g clip-path="url(#g)"><path d="m2.791 223.342h-2.791l204.9-223.342v35.71z" fill="#fff" transform="translate(.137 .03)"/></g></g><g transform="translate(207 119)"><path d="m0 156.626h170.167v-156.626h-170.167z" fill="none" transform="translate(.406 .668)"/><g clip-path="url(#h)"><path d="m6.243 160.694h-6.243l199.679-160.694v39.871z" fill="#fff" transform="translate(.406 .668)"/></g></g><g transform="translate(225 197)"><path d="m0 78.635h151.973v-78.635h-151.973z" fill="none" transform="translate(.603 .659)"/><g clip-path="url(#i)"><path d="m14.5 82.71h-14.5l181.24-82.71v27.532z" fill="#fff" transform="translate(.603 .659)"/></g></g><g transform="translate(24)"><path d="m0 276.028h158.7v-276.028h-158.7z" fill="none" transform="translate(.743 .266)"/><g clip-path="url(#j)"><path d="m0 0 156.761 581.705h1.939l-92.225-581.705z" fill="#fff" transform="translate(.743 -301.337)"/></g></g><path d="m179.863 276.028h-179.863v-276.028h179.863z" fill="none" transform="translate(.48 .266)"/><g clip-path="url(#k)"><path d="m0 136.574 216.244 436.069h1.964l-218.208-572.643z" fill="#fff" transform="translate(-37.866 -292.275)"/></g><path d="m175.5 276.028h-175.5v-276.028h175.5z" fill="none" transform="translate(.479 .266)"/><g clip-path="url(#l)"><path d="m210.967 351.526h2.779l-213.746-351.526v77.774z" fill="#fff" transform="translate(-37.769 -71.158)"/></g><g transform="translate(0 57)"><path d="m170.229 219.263h-170.229v-219.263h170.229z" fill="none" transform="translate(.48 .03)"/><g clip-path="url(#m)"><path d="m205.758 223.342h2.783l-208.541-223.342v35.71z" fill="#fff" transform="translate(-37.831 .03)"/></g></g><g transform="translate(0 119)"><path d="m164.96 156.626h-164.96v-156.626h164.96z" fill="none" transform="translate(.481 .668)"/><g clip-path="url(#n)"><path d="m197.113 160.694h6.227l-203.34-160.694v39.871z" fill="#fff" transform="translate(-37.899 .668)"/></g></g><g transform="translate(0 197)"><path d="m148.516 78.635h-148.516v-78.635h148.516z" fill="none" transform="translate(.482 .659)"/><g clip-path="url(#o)"><path d="m172.385 82.71h14.623l-187.008-82.71v27.532z" fill="#fff" transform="translate(-38.01 .659)"/></g></g></g></g></svg>